<?xml version="1.0" encoding="utf-8"?>
<!-- Generator: Adobe Illustrator 19.1.0, SVG Export Plug-In . SVG Version: 6.00 Build 0)  -->
<svg version="1.1" id="Layer_1" xmlns="http://www.w3.org/2000/svg" xmlns:xlink="http://www.w3.org/1999/xlink" x="0px" y="0px"
	 viewBox="0 0 200 50" style="enable-background:new 0 0 200 50;" xml:space="preserve">
<style type="text/css">
	.st0{fill:#F04E4F;}
	.st1{fill:#333333;}
</style>
<g>
	<path class="st0" d="M140.8,3.2h-29l2.9,4.5l25,38.8c0.4,0,0.7,0,1.1,0c1.4,0,2.7-0.1,4-0.4c10-1.9,17.6-10.7,17.6-21.3
		C162.5,12.9,152.7,3.2,140.8,3.2z M142.1,42L120,7.7h20.8c9.5,0,17.2,7.7,17.2,17.2C158,33.9,151,41.3,142.1,42z"/>
	<path class="st0" d="M67.2,31.9l20.7,14.6h7.8L74.9,31.8h8.6c0,0,0,0,0,0c7.9,0,14.3-6.4,14.3-14.3S91.3,3.2,83.4,3.2c0,0,0,0,0,0
		H62.7v4.5h20.7c0,0,0,0,0,0c5.4,0,9.8,4.4,9.8,9.8s-4.4,9.8-9.8,9.8c0,0,0,0,0,0H67.2h-4.5v4.5v14.7h4.5V31.9z"/>
	<path class="st0" d="M105,32h13.7l9.4,14.6h5.3L124,32l-3-4.7L105.4,3.1h-4.9v0.6v42.7h4.5V32z M105,10.8l10.6,16.5H105V10.8z"/>
</g>
<g>
	<g>
		<path class="st1" d="M11.5,29.4H6.4l-1,3.4H3.6l4.3-13.4h2.3l4.3,13.4h-1.9L11.5,29.4z M11.1,27.9l-2.1-7l-2.1,7H11.1z"/>
		<path class="st1" d="M26,32.8h-2.5L18,21.4c0.1,1.1,0.3,2.7,0.3,5.2v6.2h-1.7V19.4H19l5.5,11.4c0-0.3-0.3-2.5-0.3-4.1v-7.3H26
			V32.8z"/>
		<path class="st1" d="M39.1,28.5c0,2.7-1.7,4.5-4.7,4.5c-3.1,0-4.7-1.9-4.7-4.5v-9.1h1.9v9c0,2.1,0.9,3.1,2.8,3.1
			c1.9,0,2.8-1,2.8-3.1v-9h1.9V28.5z"/>
	</g>
</g>
<g>
	<path class="st1" d="M193.7,29.4h-5.1l-1,3.4h-1.9l4.3-13.4h2.3l4.3,13.4h-1.9L193.7,29.4z M193.3,27.9l-2.1-7l-2.1,7H193.3z"/>
</g>
<g>
	<g>
		<path class="st1" d="M50.8,25.6h2.8v1.5h-2.8V30h-1.6v-2.9h-2.8v-1.5h2.8v-2.9h1.6V25.6z"/>
	</g>
</g>
<g>
	<path class="st1" d="M176.8,25.6h2.8v1.5h-2.8V30h-1.6v-2.9h-2.8v-1.5h2.8v-2.9h1.6V25.6z"/>
</g>
</svg>
